<svg id="svg" version="1.1" xmlns="http://www.w3.org/2000/svg" xmlns:xlink="http://www.w3.org/1999/xlink" width="400" height="400" viewBox="0, 0, 400,400"><g id="svgg"><path id="path0" d="M124.600 29.685 C 122.964 30.100,121.541 30.618,120.305 31.247 C 119.923 31.441,119.338 31.600,119.005 31.600 C 118.672 31.600,118.400 31.736,118.400 31.902 C 118.400 32.069,117.815 32.458,117.100 32.767 C 115.041 33.658,110.051 37.979,110.013 38.904 C 110.006 39.071,109.460 39.772,108.800 40.463 C 108.140 41.154,107.600 41.962,107.600 42.259 C 107.600 42.557,107.420 42.800,107.200 42.800 C 106.980 42.800,106.800 43.160,106.800 43.600 C 106.800 44.040,106.620 44.400,106.400 44.400 C 106.180 44.400,106.000 44.839,106.000 45.376 C 106.000 45.913,105.820 46.464,105.600 46.600 C 105.380 46.736,105.200 47.251,105.200 47.744 C 105.200 48.237,105.036 48.811,104.835 49.020 C 103.800 50.098,103.799 62.400,104.834 62.400 C 105.035 62.400,105.200 62.929,105.200 63.576 C 105.200 64.223,105.380 64.864,105.600 65.000 C 105.820 65.136,106.000 65.597,106.000 66.024 C 106.000 66.451,106.180 66.800,106.400 66.800 C 106.620 66.800,106.800 67.160,106.800 67.600 C 106.800 68.040,106.980 68.400,107.200 68.400 C 107.420 68.400,107.600 68.636,107.600 68.925 C 107.600 69.213,107.960 69.836,108.400 70.308 C 108.840 70.780,109.200 71.314,109.200 71.493 C 109.200 72.089,115.104 77.490,116.363 78.048 C 117.044 78.349,117.600 78.731,117.600 78.898 C 117.600 79.064,117.960 79.200,118.400 79.200 C 118.840 79.200,119.200 79.380,119.200 79.600 C 119.200 79.820,119.549 80.000,119.976 80.000 C 120.403 80.000,120.864 80.180,121.000 80.400 C 121.136 80.620,121.766 80.800,122.400 80.800 C 123.034 80.800,123.664 80.980,123.800 81.200 C 123.936 81.420,125.029 81.600,126.229 81.600 C 127.429 81.600,128.761 81.819,129.189 82.086 C 129.800 82.468,130.257 82.468,131.312 82.086 C 132.052 81.819,133.578 81.600,134.705 81.600 C 135.831 81.600,136.864 81.420,137.000 81.200 C 137.136 80.980,137.676 80.800,138.200 80.800 C 138.724 80.800,139.264 80.620,139.400 80.400 C 139.536 80.180,140.087 80.000,140.624 80.000 C 141.161 80.000,141.600 79.820,141.600 79.600 C 141.600 79.380,141.960 79.200,142.400 79.200 C 142.840 79.200,143.200 79.050,143.200 78.868 C 143.200 78.685,143.695 78.281,144.300 77.970 C 144.905 77.660,145.691 77.089,146.047 76.703 C 146.403 76.316,146.853 75.999,147.047 75.998 C 148.732 75.989,153.868 68.607,155.533 63.800 C 157.105 59.263,157.106 49.599,155.535 47.820 C 155.351 47.611,155.200 47.195,155.200 46.895 C 155.200 46.072,152.769 41.200,152.358 41.200 C 152.161 41.200,152.000 40.951,152.000 40.646 C 152.000 38.560,141.777 30.800,139.028 30.800 C 138.709 30.800,138.348 30.640,138.227 30.444 C 137.662 29.529,127.452 28.960,124.600 29.685 M242.000 29.615 C 241.450 29.796,240.190 30.176,239.200 30.458 C 234.810 31.712,226.400 37.664,226.400 39.516 C 226.400 39.699,226.085 40.207,225.700 40.645 C 224.732 41.746,223.747 43.496,222.800 45.800 C 222.529 46.460,222.148 47.313,221.953 47.695 C 221.759 48.077,221.600 49.011,221.600 49.771 C 221.600 50.531,221.420 51.264,221.200 51.400 C 220.977 51.538,220.800 53.396,220.800 55.600 C 220.800 57.804,220.977 59.662,221.200 59.800 C 221.420 59.936,221.600 60.746,221.600 61.600 C 221.600 62.454,221.780 63.264,222.000 63.400 C 222.220 63.536,222.400 63.978,222.400 64.383 C 222.400 67.079,230.555 77.600,232.644 77.600 C 232.913 77.600,233.193 77.735,233.267 77.900 C 233.459 78.332,236.772 80.000,237.438 80.000 C 237.747 80.000,238.000 80.180,238.000 80.400 C 238.000 80.620,238.504 80.800,239.120 80.800 C 239.736 80.800,240.411 80.965,240.620 81.166 C 241.658 82.167,252.742 82.167,253.780 81.166 C 253.989 80.965,254.664 80.800,255.280 80.800 C 255.896 80.800,256.400 80.620,256.400 80.400 C 256.400 80.180,256.653 80.000,256.962 80.000 C 257.628 80.000,260.941 78.332,261.133 77.900 C 261.207 77.735,261.489 77.600,261.761 77.600 C 262.606 77.600,267.631 72.713,269.164 70.400 C 272.137 65.914,273.160 62.829,273.476 57.393 C 273.710 53.379,272.870 47.138,271.972 46.220 C 271.767 46.011,271.600 45.516,271.600 45.120 C 271.600 44.724,271.420 44.400,271.200 44.400 C 270.980 44.400,270.800 44.040,270.800 43.600 C 270.800 43.160,270.620 42.800,270.400 42.800 C 270.180 42.800,270.000 42.575,270.000 42.300 C 269.999 42.025,269.549 41.277,269.000 40.638 C 268.450 39.999,268.000 39.361,268.000 39.221 C 268.000 38.793,265.435 36.218,263.772 34.977 C 262.907 34.332,262.110 33.709,262.000 33.593 C 261.487 33.049,256.808 30.879,255.200 30.439 C 254.210 30.168,252.847 29.778,252.172 29.573 C 250.690 29.123,243.401 29.153,242.000 29.615 M352.098 188.900 L 352.200 240.600 358.173 240.711 C 364.706 240.833,365.690 240.607,367.679 238.528 C 370.135 235.960,370.000 238.991,370.000 186.413 L 370.000 138.400 371.038 138.400 C 372.862 138.400,375.838 140.900,376.244 142.774 C 376.618 144.498,376.759 144.800,377.187 144.800 C 377.414 144.800,377.600 144.170,377.600 143.400 C 377.600 142.630,377.420 142.000,377.200 142.000 C 376.980 142.000,376.800 141.730,376.800 141.400 C 376.800 141.070,376.620 140.800,376.400 140.800 C 376.180 140.800,376.000 140.607,376.000 140.371 C 376.000 139.818,374.982 138.800,374.429 138.800 C 374.193 138.800,374.000 138.656,374.000 138.480 C 374.000 137.521,370.904 137.200,361.670 137.200 L 351.997 137.200 352.098 188.900 M28.800 143.579 C 28.800 143.810,28.463 144.000,28.051 144.000 C 27.143 144.000,23.200 147.729,23.200 148.588 C 23.200 148.924,23.020 149.200,22.800 149.200 C 22.021 149.200,22.274 237.617,23.058 239.239 C 24.124 241.446,27.197 244.000,28.786 244.000 C 30.199 244.000,29.672 243.228,27.657 242.348 C 25.889 241.576,24.044 239.566,24.308 238.700 C 24.359 238.535,24.220 238.400,24.000 238.400 C 22.767 238.400,23.711 236.815,25.100 236.555 C 28.464 235.925,31.077 234.066,32.645 231.187 C 33.370 229.856,33.404 228.104,33.503 187.600 C 33.610 143.555,33.600 143.943,34.627 144.970 C 34.974 145.317,35.494 145.600,35.784 145.600 C 36.387 145.600,40.014 149.052,39.721 149.346 C 39.367 149.699,40.050 151.216,40.451 150.969 C 40.684 150.824,40.806 151.268,40.750 152.063 C 40.549 154.929,40.818 159.200,41.200 159.200 C 41.721 159.200,41.733 151.493,41.213 150.973 C 41.001 150.761,40.784 150.017,40.731 149.321 C 40.677 148.625,40.491 148.144,40.317 148.251 C 40.143 148.359,40.000 148.265,40.000 148.043 C 40.000 147.406,37.143 144.790,35.600 144.015 C 34.015 143.219,28.800 142.884,28.800 143.579 M40.758 231.700 C 40.734 233.075,40.748 234.694,40.788 235.299 C 40.827 235.903,40.576 236.681,40.230 237.027 C 39.883 237.374,39.600 237.976,39.600 238.365 C 39.600 239.013,36.416 242.684,36.388 242.069 C 36.381 241.921,36.190 242.119,35.963 242.508 C 35.736 242.898,35.374 243.108,35.158 242.974 C 34.942 242.840,34.315 243.026,33.764 243.387 C 33.214 243.747,32.437 243.939,32.038 243.812 C 31.136 243.526,29.925 243.955,30.232 244.452 C 30.501 244.888,33.168 244.775,33.452 244.316 C 33.559 244.142,33.991 244.000,34.411 244.000 C 36.002 244.000,38.475 242.243,40.322 239.800 C 41.445 238.316,42.199 229.200,41.200 229.200 C 40.980 229.200,40.781 230.325,40.758 231.700 M376.567 242.634 C 376.168 244.760,373.355 247.600,371.647 247.600 C 370.775 247.600,370.389 247.768,370.498 248.100 C 370.700 248.718,372.800 249.016,372.800 248.427 C 372.800 248.192,373.076 248.000,373.413 248.000 C 374.839 248.000,377.600 244.311,377.600 242.405 C 377.600 240.736,376.894 240.891,376.567 242.634 M56.400 298.800 C 55.719 299.481,55.600 300.133,55.600 303.200 C 55.600 308.115,55.893 308.402,60.900 308.394 C 65.014 308.387,65.366 308.267,65.975 306.666 C 66.881 304.282,66.324 299.108,65.075 298.314 C 63.937 297.591,57.234 297.966,56.400 298.800 M87.429 298.629 C 86.942 299.115,86.800 300.149,86.800 303.200 C 86.800 308.336,86.862 308.400,91.829 308.400 C 96.917 308.400,97.200 308.126,97.200 303.200 C 97.200 298.274,96.917 298.000,91.829 298.000 C 88.933 298.000,87.911 298.146,87.429 298.629 M118.194 298.663 C 117.287 299.570,117.460 307.416,118.400 308.009 C 119.640 308.792,126.319 308.481,127.200 307.600 C 128.342 306.458,128.394 299.681,127.269 298.662 C 126.207 297.702,119.155 297.702,118.194 298.663 M149.289 298.623 C 148.009 299.519,147.941 306.341,149.200 307.600 C 150.105 308.505,156.531 308.786,158.026 307.986 C 159.078 307.423,159.199 299.656,158.171 298.629 C 157.280 297.737,150.559 297.733,149.289 298.623 M180.300 298.432 C 179.701 298.781,179.600 299.470,179.600 303.206 C 179.600 308.464,179.536 308.400,184.774 308.400 C 189.698 308.400,190.000 308.099,190.000 303.200 C 190.000 298.282,189.707 297.996,184.700 298.012 C 182.665 298.019,180.685 298.208,180.300 298.432 M210.816 298.875 C 210.126 299.616,210.000 300.282,210.000 303.200 C 210.000 308.021,210.382 308.400,215.242 308.400 C 220.463 308.400,220.400 308.463,220.400 303.200 C 220.400 297.937,220.463 298.000,215.242 298.000 C 212.043 298.000,211.538 298.100,210.816 298.875 M241.829 298.629 C 241.342 299.115,241.200 300.149,241.200 303.200 C 241.200 308.322,241.274 308.400,246.140 308.400 C 251.424 308.400,251.600 308.233,251.600 303.200 C 251.600 299.567,251.528 299.195,250.711 298.623 C 249.441 297.733,242.720 297.737,241.829 298.629 M272.800 298.800 C 272.119 299.481,272.000 300.133,272.000 303.200 C 272.000 308.126,272.283 308.400,277.371 308.400 C 282.338 308.400,282.400 308.336,282.400 303.200 C 282.400 298.064,282.338 298.000,277.371 298.000 C 274.133 298.000,273.487 298.113,272.800 298.800 M303.900 298.432 C 303.301 298.781,303.200 299.470,303.200 303.206 C 303.200 308.456,303.145 308.400,308.297 308.400 C 313.300 308.400,313.400 308.298,313.400 303.200 C 313.400 298.086,313.309 297.995,308.224 298.012 C 306.231 298.019,304.285 298.208,303.900 298.432 M334.629 298.629 C 334.142 299.115,334.000 300.149,334.000 303.200 C 334.000 308.336,334.062 308.400,339.029 308.400 C 344.117 308.400,344.400 308.126,344.400 303.200 C 344.400 298.274,344.117 298.000,339.029 298.000 C 336.133 298.000,335.111 298.146,334.629 298.629 M41.200 343.792 L 41.200 375.183 199.300 375.292 C 286.255 375.351,357.715 375.334,358.100 375.253 C 358.759 375.115,358.800 373.291,358.800 343.753 L 358.800 312.400 200.000 312.400 L 41.200 312.400 41.200 343.792 M108.778 318.082 C 113.100 320.389,113.200 320.972,113.200 343.800 C 113.200 366.531,113.147 366.862,109.057 369.522 L 107.400 370.600 83.000 370.600 L 58.600 370.600 56.726 369.498 C 55.696 368.893,54.436 367.813,53.926 367.098 L 53.000 365.800 53.000 344.360 C 53.000 320.825,52.902 321.818,55.469 319.363 C 57.636 317.291,57.719 317.285,83.262 317.241 L 107.124 317.200 108.778 318.082 M187.259 318.351 C 188.258 318.985,189.508 320.200,190.037 321.051 L 191.000 322.600 191.123 343.000 C 191.257 365.070,191.228 365.429,189.123 367.827 C 186.548 370.759,188.165 370.600,161.000 370.600 L 136.600 370.600 134.907 369.630 C 133.976 369.097,132.744 367.950,132.169 367.082 L 131.124 365.502 131.179 344.098 C 131.256 314.246,127.843 317.278,161.422 317.233 L 185.443 317.200 187.259 318.351 M264.510 317.788 C 269.203 319.749,269.274 320.167,269.122 345.200 L 269.000 365.400 267.893 367.030 C 267.284 367.927,266.024 369.097,265.093 369.630 L 263.400 370.600 239.200 370.600 C 212.323 370.600,213.330 370.696,210.994 367.919 C 209.148 365.726,209.136 365.568,209.185 344.022 C 209.240 319.669,209.115 320.368,213.835 318.013 C 215.949 316.958,262.033 316.753,264.510 317.788 M343.204 318.096 C 347.506 320.393,347.601 320.949,347.594 343.750 C 347.587 366.544,347.580 366.586,343.694 369.285 L 341.800 370.600 317.200 370.600 L 292.600 370.600 290.761 369.323 C 287.154 366.818,287.400 368.643,287.400 344.360 C 287.400 320.825,287.302 321.818,289.869 319.363 C 292.036 317.291,292.119 317.285,317.662 317.241 L 341.524 317.200 343.204 318.096 M56.400 380.000 C 54.961 381.439,55.370 388.232,56.960 389.294 C 57.557 389.693,64.472 389.669,65.107 389.266 C 67.078 388.015,66.725 379.995,64.675 379.446 C 62.407 378.837,57.215 379.185,56.400 380.000 M87.700 379.799 C 86.456 380.693,86.324 387.845,87.531 388.938 C 88.493 389.808,95.049 389.891,96.203 389.047 C 97.241 388.289,97.599 381.443,96.666 380.200 C 95.834 379.091,89.103 378.790,87.700 379.799 M118.400 380.000 C 117.719 380.681,117.600 381.333,117.600 384.400 C 117.600 389.294,117.906 389.600,122.800 389.600 C 125.867 389.600,126.519 389.481,127.200 388.800 C 127.881 388.119,128.000 387.467,128.000 384.400 C 128.000 379.506,127.694 379.200,122.800 379.200 C 119.733 379.200,119.081 379.319,118.400 380.000 M149.236 379.964 C 148.009 381.191,147.994 387.414,149.216 388.725 C 150.276 389.862,157.093 390.050,158.171 388.971 C 158.892 388.251,159.082 381.066,158.409 380.000 C 157.733 378.929,150.300 378.900,149.236 379.964 M180.500 379.594 C 179.208 380.140,179.098 388.503,180.374 389.186 C 181.251 389.655,187.967 389.743,188.640 389.294 C 190.079 388.333,190.602 381.831,189.371 380.200 C 188.688 379.296,182.246 378.856,180.500 379.594 M211.600 379.496 C 209.545 380.296,209.328 388.016,211.325 389.286 C 212.041 389.741,218.740 389.660,219.626 389.186 C 221.000 388.451,220.781 380.125,219.374 379.590 C 218.281 379.174,212.604 379.106,211.600 379.496 M242.089 379.823 C 241.280 380.390,241.200 380.776,241.200 384.134 C 241.200 389.392,241.391 389.600,246.223 389.600 C 251.318 389.600,251.600 389.327,251.600 384.400 C 251.600 379.523,251.282 379.200,246.489 379.200 C 243.959 379.200,242.730 379.374,242.089 379.823 M272.800 380.000 C 272.119 380.681,272.000 381.333,272.000 384.400 C 272.000 389.327,272.282 389.600,277.377 389.600 C 282.209 389.600,282.400 389.392,282.400 384.134 C 282.400 379.432,282.151 379.200,277.111 379.200 C 274.133 379.200,273.478 379.322,272.800 380.000 M304.100 379.612 C 302.808 380.132,302.698 388.503,303.974 389.186 C 305.470 389.987,311.780 389.706,312.598 388.802 C 314.308 386.913,313.764 379.952,311.867 379.444 C 310.539 379.087,305.113 379.205,304.100 379.612 M335.100 379.476 C 333.759 379.826,333.495 388.384,334.800 389.209 C 335.781 389.828,342.523 389.691,343.424 389.033 C 344.658 388.130,344.822 381.222,343.637 380.037 C 342.821 379.221,337.432 378.866,335.100 379.476 " stroke="none" fill="#aeb1b2" fill-rule="evenodd"></path><path id="path1" d="M123.200 4.800 C 123.200 5.020,122.221 5.200,121.024 5.200 C 119.827 5.200,118.736 5.380,118.600 5.600 C 118.464 5.820,117.744 6.000,117.000 6.000 C 116.256 6.000,115.536 6.180,115.400 6.400 C 115.264 6.620,114.713 6.800,114.176 6.800 C 113.639 6.800,113.200 6.980,113.200 7.200 C 113.200 7.420,112.838 7.600,112.395 7.600 C 111.952 7.600,111.277 7.765,110.895 7.967 C 110.513 8.168,109.615 8.550,108.900 8.815 C 108.185 9.080,107.600 9.466,107.600 9.672 C 107.600 9.878,107.418 9.935,107.196 9.798 C 106.974 9.661,105.975 10.100,104.976 10.774 C 103.977 11.448,102.899 12.000,102.580 12.000 C 102.261 12.000,102.000 12.150,102.000 12.332 C 102.000 12.515,101.511 12.920,100.912 13.232 C 98.969 14.247,92.000 20.742,92.000 21.539 C 92.000 21.819,91.847 21.953,91.660 21.837 C 91.473 21.722,91.068 22.116,90.760 22.714 C 90.452 23.311,89.705 24.277,89.100 24.860 C 88.495 25.444,88.000 26.119,88.000 26.360 C 88.000 26.602,87.820 26.800,87.600 26.800 C 87.380 26.800,87.200 27.160,87.200 27.600 C 87.200 28.040,87.009 28.400,86.776 28.400 C 86.543 28.400,86.452 28.561,86.574 28.758 C 86.696 28.955,86.526 29.219,86.198 29.346 C 85.869 29.472,85.600 29.836,85.600 30.154 C 85.600 30.473,85.412 30.796,85.182 30.873 C 84.952 30.949,84.735 31.406,84.698 31.889 C 84.662 32.371,84.553 32.686,84.456 32.589 C 84.219 32.352,83.200 34.346,83.200 35.046 C 83.200 35.351,83.020 35.600,82.800 35.600 C 82.580 35.600,82.400 36.020,82.400 36.533 C 82.400 37.047,82.277 37.590,82.126 37.741 C 81.682 38.185,80.813 40.924,80.806 41.900 C 80.803 42.395,80.638 42.800,80.440 42.800 C 79.930 42.800,79.497 46.454,79.058 54.462 C 79.026 55.046,78.834 55.421,78.632 55.296 C 78.417 55.163,78.397 55.387,78.583 55.834 C 78.759 56.255,79.042 58.400,79.214 60.600 C 79.385 62.800,79.726 65.410,79.971 66.400 C 80.216 67.390,80.527 68.875,80.661 69.700 C 80.795 70.525,81.062 71.200,81.253 71.200 C 81.444 71.200,81.600 71.740,81.600 72.400 C 81.600 73.060,81.780 73.600,82.000 73.600 C 82.220 73.600,82.400 73.888,82.400 74.239 C 82.400 75.127,85.603 81.600,86.042 81.600 C 86.239 81.600,86.400 81.960,86.400 82.400 C 86.400 82.840,86.580 83.200,86.800 83.200 C 87.020 83.200,87.200 83.470,87.200 83.800 C 87.200 84.130,87.380 84.400,87.600 84.400 C 87.820 84.400,88.000 84.578,88.000 84.795 C 88.000 85.167,88.760 86.215,89.900 87.416 C 90.175 87.706,90.400 88.068,90.400 88.221 C 90.400 88.650,97.224 95.293,98.800 96.397 C 99.570 96.937,100.549 97.698,100.975 98.089 C 101.402 98.480,101.972 98.800,102.242 98.800 C 102.512 98.800,102.793 98.935,102.867 99.100 C 103.034 99.476,105.164 100.775,106.100 101.071 C 106.485 101.193,106.800 101.452,106.800 101.647 C 106.800 101.841,107.072 102.000,107.405 102.000 C 107.738 102.000,108.323 102.157,108.705 102.350 C 111.798 103.908,112.976 104.400,113.614 104.400 C 114.020 104.400,114.452 104.560,114.573 104.756 C 115.404 106.100,125.606 106.284,195.000 106.201 C 260.232 106.122,259.713 106.134,262.495 104.746 C 262.877 104.556,263.541 104.400,263.971 104.400 C 264.401 104.400,264.864 104.220,265.000 104.000 C 265.136 103.780,265.552 103.601,265.924 103.603 C 266.682 103.607,273.325 100.377,273.533 99.904 C 273.607 99.737,273.922 99.600,274.233 99.600 C 274.545 99.600,274.800 99.420,274.800 99.200 C 274.800 98.980,275.030 98.800,275.312 98.800 C 275.593 98.800,276.083 98.440,276.400 98.000 C 276.717 97.560,277.185 97.200,277.440 97.200 C 277.695 97.200,278.645 96.480,279.552 95.600 C 280.459 94.720,281.381 94.000,281.600 94.000 C 281.820 94.000,282.000 93.820,282.000 93.600 C 282.000 93.380,282.172 93.200,282.382 93.200 C 282.772 93.200,284.800 91.325,284.800 90.964 C 284.800 90.854,285.238 90.326,285.773 89.791 C 286.308 89.256,287.252 88.139,287.870 87.309 C 288.489 86.479,289.087 85.710,289.199 85.600 C 289.960 84.852,291.600 82.037,291.600 81.478 C 291.600 81.105,291.780 80.800,292.000 80.800 C 292.220 80.800,292.400 80.440,292.400 80.000 C 292.400 79.560,292.580 79.200,292.800 79.200 C 293.020 79.200,293.200 78.840,293.200 78.400 C 293.200 77.960,293.380 77.600,293.600 77.600 C 293.820 77.600,294.000 77.240,294.000 76.800 C 294.000 76.360,294.180 76.000,294.400 76.000 C 294.620 76.000,294.800 75.651,294.800 75.224 C 294.800 74.797,294.980 74.336,295.200 74.200 C 295.420 74.064,295.600 73.513,295.600 72.976 C 295.600 72.439,295.780 72.000,296.000 72.000 C 296.220 72.000,296.400 71.370,296.400 70.600 C 296.400 69.830,296.580 69.200,296.800 69.200 C 297.020 69.200,297.200 68.480,297.200 67.600 C 297.200 66.720,297.380 66.000,297.600 66.000 C 297.829 66.000,298.000 64.800,298.000 63.200 C 298.000 61.600,298.171 60.400,298.400 60.400 C 298.643 60.400,298.800 58.608,298.800 55.824 C 298.800 53.204,298.629 51.142,298.400 51.000 C 298.180 50.864,298.000 49.503,298.000 47.976 C 298.000 46.392,297.828 45.200,297.600 45.200 C 297.380 45.200,297.200 44.480,297.200 43.600 C 297.200 42.720,297.020 42.000,296.800 42.000 C 296.580 42.000,296.400 41.460,296.400 40.800 C 296.400 40.140,296.220 39.600,296.000 39.600 C 295.780 39.600,295.600 39.060,295.600 38.400 C 295.600 37.740,295.420 37.200,295.200 37.200 C 294.980 37.200,294.800 36.761,294.800 36.224 C 294.800 35.687,294.620 35.136,294.400 35.000 C 294.180 34.864,294.000 34.403,294.000 33.976 C 294.000 33.549,293.820 33.200,293.600 33.200 C 293.380 33.200,293.200 32.840,293.200 32.400 C 293.200 31.960,293.065 31.598,292.900 31.595 C 292.735 31.593,292.244 30.828,291.810 29.895 C 290.882 27.904,289.753 26.200,288.500 24.899 C 288.005 24.384,287.600 23.798,287.600 23.596 C 287.600 23.149,279.757 15.200,279.314 15.199 C 279.141 15.199,278.370 14.659,277.600 14.000 C 276.830 13.341,275.990 12.801,275.733 12.801 C 275.477 12.800,275.207 12.658,275.133 12.485 C 274.804 11.707,269.032 8.701,268.633 9.100 C 268.505 9.228,268.400 9.123,268.400 8.867 C 268.400 8.610,268.040 8.400,267.600 8.400 C 267.160 8.400,266.800 8.220,266.800 8.000 C 266.800 7.780,266.260 7.600,265.600 7.600 C 264.940 7.600,264.400 7.420,264.400 7.200 C 264.400 6.980,263.860 6.800,263.200 6.800 C 262.540 6.800,262.000 6.620,262.000 6.400 C 262.000 6.180,261.280 6.000,260.400 6.000 C 259.520 6.000,258.800 5.820,258.800 5.600 C 258.800 5.380,257.936 5.200,256.880 5.200 C 255.824 5.200,254.767 5.007,254.532 4.772 C 253.749 3.989,235.600 4.818,235.600 5.637 C 235.600 5.837,234.880 6.000,234.000 6.000 C 233.120 6.000,232.400 6.180,232.400 6.400 C 232.400 6.620,231.860 6.800,231.200 6.800 C 230.540 6.800,230.000 6.980,230.000 7.200 C 230.000 7.420,229.550 7.600,229.000 7.600 C 228.450 7.600,228.000 7.780,228.000 8.000 C 228.000 8.220,227.651 8.400,227.224 8.400 C 226.797 8.400,226.334 8.583,226.196 8.807 C 226.058 9.030,225.798 9.122,225.618 9.011 C 225.438 8.900,225.061 9.085,224.781 9.423 C 224.501 9.760,224.031 9.944,223.736 9.831 C 223.441 9.718,223.197 9.754,223.194 9.913 C 223.190 10.071,222.299 10.636,221.213 11.169 C 220.127 11.702,219.330 12.287,219.443 12.469 C 219.555 12.651,219.311 12.800,218.899 12.800 C 218.488 12.800,217.802 13.115,217.375 13.500 C 216.948 13.885,215.949 14.685,215.155 15.278 C 213.026 16.868,210.400 19.471,210.400 19.992 C 210.400 20.242,210.220 20.336,210.000 20.200 C 209.780 20.064,209.599 20.098,209.598 20.276 C 209.597 20.454,208.787 21.492,207.798 22.583 C 206.809 23.674,206.000 24.759,206.000 24.995 C 206.000 25.231,205.640 25.683,205.200 26.000 C 204.760 26.317,204.400 26.729,204.400 26.916 C 204.400 27.103,203.860 28.041,203.200 29.000 C 202.540 29.959,202.000 30.937,202.000 31.172 C 202.000 31.407,201.820 31.600,201.600 31.600 C 201.380 31.600,201.200 31.960,201.200 32.400 C 201.200 32.840,201.009 33.200,200.776 33.200 C 200.543 33.200,200.448 33.353,200.564 33.541 C 200.680 33.729,200.516 34.224,200.200 34.641 C 199.884 35.058,199.620 35.805,199.613 36.300 C 199.606 36.795,199.420 37.200,199.200 37.200 C 198.980 37.200,198.800 37.549,198.800 37.976 C 198.800 38.403,198.608 38.872,198.373 39.017 C 198.138 39.162,197.998 39.883,198.061 40.619 C 198.124 41.355,198.018 42.102,197.824 42.279 C 197.623 42.462,197.612 42.358,197.798 42.038 C 198.017 41.660,197.972 41.570,197.662 41.762 C 197.408 41.919,197.200 42.656,197.200 43.400 C 197.200 44.144,197.020 44.864,196.800 45.000 C 196.580 45.136,196.400 46.317,196.400 47.624 C 196.400 48.931,196.238 50.000,196.040 50.000 C 195.556 50.000,195.464 60.752,195.943 61.338 C 196.151 61.592,196.399 62.790,196.495 64.000 C 196.679 66.321,199.478 74.550,201.462 78.600 C 206.013 87.891,215.260 96.970,224.716 101.430 C 226.852 102.437,228.913 103.428,229.295 103.631 C 229.677 103.834,230.442 104.000,230.995 104.000 C 231.548 104.000,232.000 104.160,232.000 104.356 C 232.000 104.552,232.585 104.815,233.300 104.940 C 234.015 105.065,235.410 105.332,236.400 105.534 C 237.527 105.763,219.647 105.899,188.600 105.896 C 160.832 105.895,139.792 105.746,140.800 105.559 C 141.790 105.375,143.275 105.109,144.100 104.968 C 144.925 104.828,145.600 104.552,145.600 104.356 C 145.600 104.160,146.039 104.000,146.576 104.000 C 147.113 104.000,147.664 103.820,147.800 103.600 C 147.936 103.380,148.378 103.200,148.783 103.200 C 149.785 103.200,158.998 98.461,159.600 97.636 C 159.710 97.485,160.430 96.924,161.200 96.389 C 161.970 95.855,162.982 95.040,163.449 94.578 C 163.916 94.116,164.726 93.391,165.249 92.967 C 169.339 89.652,175.472 80.597,178.096 74.000 C 178.314 73.450,178.652 72.687,178.847 72.305 C 179.041 71.923,179.200 71.169,179.200 70.629 C 179.200 70.089,179.380 69.536,179.600 69.400 C 179.820 69.264,180.000 68.724,180.000 68.200 C 180.000 67.676,180.180 67.136,180.400 67.000 C 180.620 66.864,180.800 65.874,180.800 64.800 C 180.800 63.726,180.980 62.736,181.200 62.600 C 181.441 62.451,181.600 59.670,181.600 55.600 C 181.600 51.530,181.441 48.749,181.200 48.600 C 180.980 48.464,180.800 47.474,180.800 46.400 C 180.800 45.326,180.620 44.336,180.400 44.200 C 180.180 44.064,180.000 43.333,180.000 42.576 C 180.000 41.819,179.820 41.200,179.600 41.200 C 179.380 41.200,179.200 40.671,179.200 40.024 C 179.200 39.377,179.020 38.736,178.800 38.600 C 178.580 38.464,178.400 37.913,178.400 37.376 C 178.400 36.839,178.220 36.400,178.000 36.400 C 177.780 36.400,177.600 36.128,177.600 35.795 C 177.600 35.462,177.432 34.877,177.226 34.495 C 177.021 34.113,176.617 33.215,176.329 32.500 C 176.040 31.785,175.688 31.200,175.546 31.200 C 175.403 31.200,175.174 30.751,175.036 30.201 C 174.749 29.059,172.409 25.600,171.923 25.600 C 171.745 25.600,171.600 25.367,171.600 25.082 C 171.600 24.556,168.322 20.697,166.285 18.825 C 165.671 18.261,164.251 16.931,163.127 15.870 C 161.754 14.572,160.989 14.094,160.792 14.412 C 160.582 14.753,160.423 14.761,160.226 14.443 C 160.076 14.199,160.066 14.000,160.205 14.000 C 161.205 14.000,154.764 9.978,153.627 9.892 C 153.203 9.860,152.942 9.693,153.049 9.521 C 153.155 9.349,152.423 8.989,151.421 8.721 C 150.419 8.453,149.600 8.091,149.600 7.917 C 149.600 7.743,149.060 7.600,148.400 7.600 C 147.740 7.600,147.200 7.420,147.200 7.200 C 147.200 6.980,146.660 6.800,146.000 6.800 C 145.340 6.800,144.800 6.620,144.800 6.400 C 144.800 6.180,144.181 6.000,143.424 6.000 C 142.667 6.000,141.936 5.820,141.800 5.600 C 141.664 5.380,140.563 5.200,139.353 5.200 C 137.988 5.200,137.247 5.048,137.400 4.800 C 137.561 4.539,135.137 4.400,130.424 4.400 C 125.875 4.400,123.200 4.548,123.200 4.800 M136.504 29.804 C 137.331 29.960,138.106 30.249,138.227 30.444 C 138.348 30.640,138.709 30.800,139.028 30.800 C 141.777 30.800,152.000 38.560,152.000 40.646 C 152.000 40.951,152.161 41.200,152.358 41.200 C 152.769 41.200,155.200 46.072,155.200 46.895 C 155.200 47.195,155.351 47.611,155.535 47.820 C 157.106 49.599,157.105 59.263,155.533 63.800 C 153.868 68.607,148.732 75.989,147.047 75.998 C 146.853 75.999,146.403 76.316,146.047 76.703 C 145.691 77.089,144.905 77.660,144.300 77.970 C 143.695 78.281,143.200 78.685,143.200 78.868 C 143.200 79.050,142.840 79.200,142.400 79.200 C 141.960 79.200,141.600 79.380,141.600 79.600 C 141.600 79.820,141.161 80.000,140.624 80.000 C 140.087 80.000,139.536 80.180,139.400 80.400 C 139.264 80.620,138.724 80.800,138.200 80.800 C 137.676 80.800,137.136 80.980,137.000 81.200 C 136.864 81.420,135.831 81.600,134.705 81.600 C 133.578 81.600,132.052 81.819,131.312 82.086 C 130.257 82.468,129.800 82.468,129.189 82.086 C 128.761 81.819,127.429 81.600,126.229 81.600 C 125.029 81.600,123.936 81.420,123.800 81.200 C 123.664 80.980,123.034 80.800,122.400 80.800 C 121.766 80.800,121.136 80.620,121.000 80.400 C 120.864 80.180,120.403 80.000,119.976 80.000 C 119.549 80.000,119.200 79.820,119.200 79.600 C 119.200 79.380,118.840 79.200,118.400 79.200 C 117.960 79.200,117.600 79.064,117.600 78.898 C 117.600 78.731,117.044 78.349,116.363 78.048 C 115.104 77.490,109.200 72.089,109.200 71.493 C 109.200 71.314,108.840 70.780,108.400 70.308 C 107.960 69.836,107.600 69.213,107.600 68.925 C 107.600 68.636,107.420 68.400,107.200 68.400 C 106.980 68.400,106.800 68.040,106.800 67.600 C 106.800 67.160,106.620 66.800,106.400 66.800 C 106.180 66.800,106.000 66.451,106.000 66.024 C 106.000 65.597,105.820 65.136,105.600 65.000 C 105.380 64.864,105.200 64.223,105.200 63.576 C 105.200 62.929,105.035 62.400,104.834 62.400 C 103.799 62.400,103.800 50.098,104.835 49.020 C 105.036 48.811,105.200 48.237,105.200 47.744 C 105.200 47.251,105.380 46.736,105.600 46.600 C 105.820 46.464,106.000 45.913,106.000 45.376 C 106.000 44.839,106.180 44.400,106.400 44.400 C 106.620 44.400,106.800 44.040,106.800 43.600 C 106.800 43.160,106.980 42.800,107.200 42.800 C 107.420 42.800,107.600 42.557,107.600 42.259 C 107.600 41.962,108.140 41.154,108.800 40.463 C 109.460 39.772,110.006 39.071,110.013 38.904 C 110.051 37.979,115.041 33.658,117.100 32.767 C 117.815 32.458,118.400 32.069,118.400 31.902 C 118.400 31.736,118.672 31.600,119.005 31.600 C 119.338 31.600,119.923 31.441,120.305 31.247 C 123.984 29.375,130.960 28.754,136.504 29.804 M252.172 29.573 C 252.847 29.778,254.210 30.168,255.200 30.439 C 256.808 30.879,261.487 33.049,262.000 33.593 C 262.110 33.709,262.907 34.332,263.772 34.977 C 265.435 36.218,268.000 38.793,268.000 39.221 C 268.000 39.361,268.450 39.999,269.000 40.638 C 269.549 41.277,269.999 42.025,270.000 42.300 C 270.000 42.575,270.180 42.800,270.400 42.800 C 270.620 42.800,270.800 43.160,270.800 43.600 C 270.800 44.040,270.980 44.400,271.200 44.400 C 271.420 44.400,271.600 44.724,271.600 45.120 C 271.600 45.516,271.767 46.011,271.972 46.220 C 272.870 47.138,273.710 53.379,273.476 57.393 C 273.160 62.829,272.137 65.914,269.164 70.400 C 267.631 72.713,262.606 77.600,261.761 77.600 C 261.489 77.600,261.207 77.735,261.133 77.900 C 260.941 78.332,257.628 80.000,256.962 80.000 C 256.653 80.000,256.400 80.180,256.400 80.400 C 256.400 80.620,255.896 80.800,255.280 80.800 C 254.664 80.800,253.989 80.965,253.780 81.166 C 252.742 82.167,241.658 82.167,240.620 81.166 C 240.411 80.965,239.736 80.800,239.120 80.800 C 238.504 80.800,238.000 80.620,238.000 80.400 C 238.000 80.180,237.747 80.000,237.438 80.000 C 236.772 80.000,233.459 78.332,233.267 77.900 C 233.193 77.735,232.913 77.600,232.644 77.600 C 232.024 77.600,226.799 72.616,225.653 70.932 C 224.214 68.816,222.400 65.164,222.400 64.383 C 222.400 63.978,222.220 63.536,222.000 63.400 C 221.780 63.264,221.600 62.454,221.600 61.600 C 221.600 60.746,221.420 59.936,221.200 59.800 C 220.977 59.662,220.800 57.804,220.800 55.600 C 220.800 53.396,220.977 51.538,221.200 51.400 C 221.420 51.264,221.600 50.531,221.600 49.771 C 221.600 49.011,221.759 48.077,221.953 47.695 C 222.148 47.313,222.529 46.460,222.800 45.800 C 223.747 43.496,224.732 41.746,225.700 40.645 C 226.085 40.207,226.400 39.699,226.400 39.516 C 226.400 37.664,234.810 31.712,239.200 30.458 C 240.190 30.176,241.450 29.796,242.000 29.615 C 243.401 29.153,250.690 29.123,252.172 29.573 M350.600 137.600 C 350.464 137.820,349.913 138.000,349.376 138.000 C 348.839 138.000,348.400 138.180,348.400 138.400 C 348.400 138.620,348.040 138.800,347.600 138.800 C 347.160 138.800,346.800 138.980,346.800 139.200 C 346.800 139.420,346.260 139.600,345.600 139.600 C 344.940 139.600,344.400 139.780,344.400 140.000 C 344.400 140.220,344.128 140.400,343.795 140.400 C 343.462 140.400,342.787 140.608,342.295 140.862 C 340.418 141.833,339.993 142.000,339.405 142.000 C 339.072 142.000,338.800 142.191,338.800 142.424 C 338.800 142.657,338.603 142.725,338.362 142.576 C 338.121 142.427,337.536 142.489,337.062 142.713 C 334.941 143.715,332.165 144.905,331.800 144.969 C 331.580 145.007,330.991 145.263,330.492 145.538 C 329.992 145.812,329.407 145.928,329.192 145.795 C 328.976 145.662,328.799 145.698,328.797 145.876 C 328.793 146.296,326.844 147.200,325.944 147.200 C 325.561 147.200,325.136 147.380,325.000 147.600 C 324.864 147.820,324.403 148.000,323.976 148.000 C 323.549 148.000,323.200 148.147,323.200 148.328 C 323.200 148.508,322.300 148.900,321.200 149.200 C 320.100 149.500,319.200 149.892,319.200 150.072 C 319.200 150.253,318.845 150.400,318.412 150.400 C 317.979 150.400,316.983 150.760,316.200 151.200 C 315.417 151.640,314.432 152.000,314.011 152.000 C 313.591 152.000,313.136 152.180,313.000 152.400 C 312.864 152.620,312.486 152.800,312.159 152.800 C 311.832 152.800,311.134 153.205,310.607 153.700 L 309.649 154.600 309.525 192.800 C 309.456 213.810,309.452 229.515,309.516 227.700 C 309.618 224.814,309.724 224.400,310.363 224.400 C 311.158 224.400,315.166 225.929,315.780 226.467 C 315.989 226.650,316.396 226.800,316.684 226.800 C 316.973 226.800,318.062 227.178,319.104 227.640 C 321.808 228.838,327.914 231.262,339.200 235.617 C 341.070 236.339,342.771 237.080,342.980 237.265 C 343.189 237.449,343.596 237.600,343.884 237.600 C 344.173 237.600,345.262 237.978,346.304 238.440 C 348.608 239.461,349.582 239.858,350.500 240.151 C 351.473 240.462,351.569 248.000,350.600 248.000 C 350.270 248.000,350.000 248.180,350.000 248.400 C 350.000 248.656,353.729 248.800,360.387 248.800 C 369.456 248.800,370.746 248.724,370.545 248.200 C 370.369 247.741,370.626 247.600,371.638 247.600 C 373.355 247.600,376.167 244.766,376.567 242.634 C 376.715 241.845,377.008 241.200,377.218 241.200 C 377.934 241.200,377.717 144.930,377.000 144.655 C 376.670 144.529,376.400 144.048,376.400 143.586 C 376.400 142.696,375.761 141.294,375.037 140.595 C 373.816 139.417,371.963 138.400,371.038 138.400 L 370.000 138.400 370.000 186.413 C 370.000 238.991,370.135 235.960,367.679 238.528 C 365.690 240.607,364.706 240.833,358.173 240.711 L 352.200 240.600 352.098 188.900 C 351.994 135.726,351.983 135.362,350.600 137.600 M36.033 144.100 C 36.125 144.155,36.740 144.650,37.400 145.200 L 38.600 146.200 37.630 145.100 C 37.097 144.495,36.482 144.000,36.264 144.000 C 36.045 144.000,35.942 144.045,36.033 144.100 M33.802 144.870 C 33.694 145.162,33.559 164.390,33.503 187.600 C 33.404 228.104,33.370 229.856,32.645 231.187 C 31.077 234.066,28.464 235.925,25.100 236.555 C 23.711 236.815,22.767 238.400,24.000 238.400 C 24.220 238.400,24.359 238.535,24.308 238.700 C 24.044 239.566,25.889 241.576,27.657 242.348 C 29.052 242.958,29.600 243.423,29.600 243.998 C 29.600 244.439,29.791 244.800,30.024 244.800 C 30.257 244.800,30.344 244.633,30.218 244.429 C 29.922 243.950,31.298 243.509,32.111 243.821 C 32.455 243.953,33.192 243.762,33.750 243.396 C 34.308 243.030,34.942 242.840,35.158 242.974 C 35.374 243.108,35.736 242.898,35.963 242.508 C 36.190 242.119,36.381 241.921,36.388 242.069 C 36.416 242.684,39.600 239.013,39.600 238.365 C 39.600 237.976,39.883 237.374,40.230 237.027 C 40.576 236.681,40.827 235.903,40.788 235.299 C 40.748 234.694,40.734 233.077,40.758 231.705 L 40.800 229.211 54.300 229.105 L 67.800 229.000 67.910 194.800 C 67.971 175.990,67.920 160.188,67.799 159.685 L 67.577 158.769 54.226 158.885 L 40.875 159.000 40.721 155.800 C 40.548 152.194,40.717 150.702,41.262 151.038 C 41.856 151.405,41.165 149.117,40.314 147.900 C 39.892 147.295,39.456 146.800,39.346 146.800 C 39.236 146.800,39.518 147.323,39.973 147.962 C 40.842 149.183,41.056 150.595,40.429 150.982 C 40.043 151.220,39.379 149.687,39.721 149.346 C 40.014 149.052,36.387 145.600,35.784 145.600 C 35.494 145.600,34.974 145.317,34.627 144.970 C 34.128 144.471,33.957 144.450,33.802 144.870 M67.600 224.800 L 67.600 228.400 54.600 228.400 L 41.600 228.400 41.600 224.800 L 41.600 221.200 54.600 221.200 L 67.600 221.200 67.600 224.800 M324.800 237.957 C 324.800 238.589,325.926 238.770,326.154 238.175 C 326.300 237.795,326.108 237.600,325.587 237.600 C 325.154 237.600,324.800 237.761,324.800 237.957 M328.800 239.600 C 328.800 239.820,329.070 240.000,329.400 240.000 C 329.730 240.000,330.000 239.820,330.000 239.600 C 330.000 239.380,329.730 239.200,329.400 239.200 C 329.070 239.200,328.800 239.380,328.800 239.600 M334.720 242.080 C 335.093 242.453,335.307 242.453,335.680 242.080 C 336.053 241.707,335.947 241.600,335.200 241.600 C 334.453 241.600,334.347 241.707,334.720 242.080 M338.200 243.600 C 338.336 243.820,338.707 244.000,339.024 244.000 C 339.341 244.000,339.600 243.820,339.600 243.600 C 339.600 243.380,339.229 243.200,338.776 243.200 C 338.323 243.200,338.064 243.380,338.200 243.600 M340.400 244.400 C 340.400 244.620,340.659 244.800,340.976 244.800 C 341.293 244.800,341.664 244.620,341.800 244.400 C 341.936 244.180,341.677 244.000,341.224 244.000 C 340.771 244.000,340.400 244.180,340.400 244.400 M342.400 245.200 C 343.176 245.701,343.600 245.701,343.600 245.200 C 343.600 244.980,343.195 244.803,342.700 244.806 C 341.972 244.811,341.915 244.886,342.400 245.200 M346.000 246.800 C 346.000 247.020,346.360 247.200,346.800 247.200 C 347.240 247.200,347.600 247.020,347.600 246.800 C 347.600 246.580,347.240 246.400,346.800 246.400 C 346.360 246.400,346.000 246.580,346.000 246.800 M47.467 292.266 C 47.321 292.412,46.733 292.582,46.161 292.643 C 44.842 292.784,42.086 295.560,41.903 296.932 C 41.826 297.503,41.637 298.097,41.482 298.252 C 41.327 298.407,41.200 301.653,41.200 305.467 L 41.200 312.400 200.000 312.400 L 358.800 312.400 358.800 305.200 C 358.800 300.667,358.652 298.000,358.400 298.000 C 358.149 298.000,358.000 300.600,358.000 305.000 L 358.000 312.000 354.400 312.000 L 350.800 312.000 350.800 302.400 L 350.800 292.800 351.824 292.800 C 352.404 292.800,352.740 292.627,352.600 292.400 C 352.321 291.949,47.918 291.815,47.467 292.266 M353.855 292.678 C 353.435 293.098,353.566 293.599,354.100 293.613 C 354.768 293.631,356.400 295.016,356.400 295.564 C 356.400 295.804,356.580 296.000,356.800 296.000 C 357.020 296.000,357.200 296.270,357.200 296.600 C 357.200 296.930,357.380 297.200,357.600 297.200 C 358.442 297.200,357.929 296.263,356.055 294.379 C 354.985 293.303,353.995 292.538,353.855 292.678 M65.075 298.314 C 65.880 298.826,66.400 300.743,66.400 303.200 C 66.400 307.885,65.870 308.386,60.900 308.394 C 55.893 308.402,55.600 308.115,55.600 303.200 C 55.600 298.285,55.893 297.998,60.900 298.006 C 62.935 298.009,64.814 298.148,65.075 298.314 M96.400 298.800 C 97.081 299.481,97.200 300.133,97.200 303.200 C 97.200 308.126,96.917 308.400,91.829 308.400 C 86.862 308.400,86.800 308.336,86.800 303.200 C 86.800 298.064,86.862 298.000,91.829 298.000 C 95.067 298.000,95.713 298.113,96.400 298.800 M127.269 298.662 C 128.394 299.681,128.342 306.458,127.200 307.600 C 126.319 308.481,119.640 308.792,118.400 308.009 C 117.460 307.416,117.287 299.570,118.194 298.663 C 119.155 297.702,126.207 297.702,127.269 298.662 M158.171 298.629 C 159.199 299.656,159.078 307.423,158.026 307.986 C 156.531 308.786,150.105 308.505,149.200 307.600 C 147.941 306.341,148.009 299.519,149.289 298.623 C 150.559 297.733,157.280 297.737,158.171 298.629 M189.200 298.800 C 189.881 299.481,190.000 300.133,190.000 303.200 C 190.000 308.099,189.698 308.400,184.774 308.400 C 179.536 308.400,179.600 308.464,179.600 303.206 C 179.600 297.940,179.512 298.029,184.700 298.012 C 187.876 298.002,188.513 298.113,189.200 298.800 M219.626 298.414 C 220.319 298.785,220.400 299.287,220.400 303.200 C 220.400 308.463,220.463 308.400,215.242 308.400 C 210.382 308.400,210.000 308.021,210.000 303.200 C 210.000 298.379,210.382 298.000,215.242 298.000 C 217.228 298.000,219.201 298.186,219.626 298.414 M250.711 298.623 C 251.528 299.195,251.600 299.567,251.600 303.200 C 251.600 308.233,251.424 308.400,246.140 308.400 C 241.274 308.400,241.200 308.322,241.200 303.200 C 241.200 298.078,241.274 298.000,246.140 298.000 C 248.825 298.000,250.063 298.169,250.711 298.623 M281.771 298.629 C 282.258 299.115,282.400 300.149,282.400 303.200 C 282.400 308.336,282.338 308.400,277.371 308.400 C 272.283 308.400,272.000 308.126,272.000 303.200 C 272.000 298.274,272.283 298.000,277.371 298.000 C 280.267 298.000,281.289 298.146,281.771 298.629 M312.624 298.568 C 313.304 299.065,313.400 299.638,313.400 303.200 C 313.400 308.298,313.300 308.400,308.297 308.400 C 303.145 308.400,303.200 308.456,303.200 303.206 C 303.200 299.470,303.301 298.781,303.900 298.432 C 305.004 297.789,311.701 297.893,312.624 298.568 M343.600 298.800 C 344.281 299.481,344.400 300.133,344.400 303.200 C 344.400 308.126,344.117 308.400,339.029 308.400 C 334.062 308.400,334.000 308.336,334.000 303.200 C 334.000 298.064,334.062 298.000,339.029 298.000 C 342.267 298.000,342.913 298.113,343.600 298.800 M41.200 382.168 C 41.200 386.393,41.358 389.250,41.600 389.400 C 41.827 389.540,42.000 389.204,42.000 388.624 L 42.000 387.600 48.600 387.600 C 52.682 387.600,55.200 387.751,55.200 387.995 C 55.200 390.161,64.147 391.097,65.984 389.125 C 66.433 388.643,66.800 388.103,66.800 387.925 C 66.800 387.746,71.210 387.600,76.600 387.600 C 85.242 387.600,86.400 387.674,86.400 388.229 C 86.400 389.676,87.406 390.000,91.891 390.000 C 96.377 390.000,97.200 389.740,97.200 388.320 C 97.200 387.646,97.829 387.600,106.973 387.600 L 116.746 387.600 117.600 388.800 L 118.454 390.000 122.765 390.000 C 127.156 390.000,128.400 389.574,128.400 388.069 C 128.400 387.723,130.978 387.600,138.200 387.600 C 146.143 387.600,148.000 387.702,148.000 388.138 C 148.000 389.552,149.361 390.000,153.631 389.994 C 157.991 389.987,158.322 389.902,159.043 388.600 C 159.465 387.839,159.959 387.795,169.151 387.693 L 178.814 387.586 179.193 388.582 C 179.945 390.560,188.980 390.659,189.917 388.700 L 190.444 387.600 200.222 387.600 C 209.371 387.600,210.000 387.646,210.000 388.320 C 210.000 389.723,210.831 390.000,215.047 390.000 C 219.727 390.000,220.325 389.849,220.821 388.545 L 221.180 387.600 230.763 387.600 L 240.346 387.600 241.200 388.800 L 242.054 390.000 246.365 390.000 C 250.756 390.000,252.000 389.574,252.000 388.069 C 252.000 387.723,254.578 387.600,261.800 387.600 C 269.743 387.600,271.600 387.702,271.600 388.138 C 271.600 390.441,280.720 391.000,282.455 388.804 L 283.400 387.607 293.100 387.604 C 302.175 387.600,302.800 387.646,302.800 388.320 C 302.800 389.745,303.620 390.000,308.200 390.000 C 312.780 390.000,313.600 389.745,313.600 388.320 C 313.600 387.646,314.230 387.600,323.400 387.600 C 328.790 387.600,333.200 387.746,333.200 387.925 C 333.200 389.427,334.842 390.000,339.154 390.000 C 343.688 390.000,344.800 389.584,344.800 387.887 C 344.800 387.530,345.436 386.936,346.214 386.567 C 349.095 385.199,350.800 381.949,350.800 377.823 L 350.800 376.000 354.400 376.000 L 358.000 376.000 358.000 383.024 C 358.000 387.604,358.139 389.961,358.400 389.800 C 358.643 389.650,358.800 386.735,358.800 382.394 L 358.800 375.235 200.000 375.209 L 41.200 375.183 41.200 382.168 M64.675 379.446 C 66.725 379.995,67.078 388.015,65.107 389.266 C 64.472 389.669,57.557 389.693,56.960 389.294 C 55.370 388.232,54.961 381.439,56.400 380.000 C 57.215 379.185,62.407 378.837,64.675 379.446 M96.666 380.200 C 97.599 381.443,97.241 388.289,96.203 389.047 C 95.049 389.891,88.493 389.808,87.531 388.938 C 86.324 387.845,86.456 380.693,87.700 379.799 C 89.103 378.790,95.834 379.091,96.666 380.200 M127.200 380.000 C 127.881 380.681,128.000 381.333,128.000 384.400 C 128.000 389.294,127.694 389.600,122.800 389.600 C 119.733 389.600,119.081 389.481,118.400 388.800 C 117.719 388.119,117.600 387.467,117.600 384.400 C 117.600 379.506,117.906 379.200,122.800 379.200 C 125.867 379.200,126.519 379.319,127.200 380.000 M158.409 380.000 C 159.082 381.066,158.892 388.251,158.171 388.971 C 157.093 390.050,150.276 389.862,149.216 388.725 C 147.994 387.414,148.009 381.191,149.236 379.964 C 150.300 378.900,157.733 378.929,158.409 380.000 M189.371 380.200 C 190.602 381.831,190.079 388.333,188.640 389.294 C 187.967 389.743,181.251 389.655,180.374 389.186 C 179.098 388.503,179.208 380.140,180.500 379.594 C 182.246 378.856,188.688 379.296,189.371 380.200 M219.374 379.590 C 220.781 380.125,221.000 388.451,219.626 389.186 C 218.740 389.660,212.041 389.741,211.325 389.286 C 209.328 388.016,209.545 380.296,211.600 379.496 C 212.604 379.106,218.281 379.174,219.374 379.590 M250.800 380.000 C 251.481 380.681,251.600 381.333,251.600 384.400 C 251.600 389.327,251.318 389.600,246.223 389.600 C 241.391 389.600,241.200 389.392,241.200 384.134 C 241.200 379.432,241.449 379.200,246.489 379.200 C 249.467 379.200,250.122 379.322,250.800 380.000 M281.511 379.823 C 282.320 380.390,282.400 380.776,282.400 384.134 C 282.400 389.392,282.209 389.600,277.377 389.600 C 272.282 389.600,272.000 389.327,272.000 384.400 C 272.000 379.523,272.318 379.200,277.111 379.200 C 279.641 379.200,280.870 379.374,281.511 379.823 M311.867 379.444 C 313.764 379.952,314.308 386.913,312.598 388.802 C 311.780 389.706,305.470 389.987,303.974 389.186 C 302.698 388.503,302.808 380.132,304.100 379.612 C 305.113 379.205,310.539 379.087,311.867 379.444 M343.637 380.037 C 344.822 381.222,344.658 388.130,343.424 389.033 C 342.523 389.691,335.781 389.828,334.800 389.209 C 333.495 388.384,333.759 379.826,335.100 379.476 C 337.432 378.866,342.821 379.221,343.637 380.037 M42.202 390.797 C 42.067 391.015,42.141 391.510,42.366 391.897 C 42.717 392.500,42.777 392.444,42.788 391.500 C 42.801 390.350,42.616 390.128,42.202 390.797 M46.536 395.096 C 46.817 395.551,49.487 395.707,49.748 395.284 C 49.863 395.099,49.140 394.905,48.142 394.853 C 47.144 394.802,46.421 394.911,46.536 395.096 M125.100 395.100 C 166.295 395.156,233.705 395.156,274.900 395.100 C 316.095 395.044,282.390 394.998,200.000 394.998 C 117.610 394.998,83.905 395.044,125.100 395.100 M350.600 395.200 C 350.453 395.438,350.929 395.600,351.776 395.600 C 352.559 395.600,353.200 395.420,353.200 395.200 C 353.200 394.980,352.671 394.800,352.024 394.800 C 351.377 394.800,350.736 394.980,350.600 395.200 " stroke="none" fill="#545c5c" fill-rule="evenodd"></path><path id="path2" d="M293.109 107.506 C 293.007 107.895,293.063 108.570,293.234 109.006 C 293.931 110.790,293.654 246.290,292.948 248.738 C 290.788 256.238,285.431 261.956,278.000 264.695 L 275.000 265.800 174.200 265.800 C 118.760 265.800,72.275 265.656,70.900 265.480 C 68.542 265.178,68.400 265.207,68.400 265.980 C 68.400 266.431,68.580 266.800,68.800 266.800 C 69.020 266.800,69.200 267.340,69.200 268.000 C 69.200 268.660,69.380 269.200,69.600 269.200 C 69.820 269.200,70.000 269.436,70.000 269.725 C 70.000 270.013,70.360 270.636,70.800 271.108 C 71.240 271.580,71.600 272.172,71.600 272.423 C 71.600 272.932,73.899 275.200,74.415 275.200 C 74.597 275.200,74.860 275.560,75.000 276.000 C 75.140 276.440,75.522 276.800,75.851 276.800 C 76.179 276.800,76.336 276.980,76.200 277.200 C 76.064 277.420,76.233 277.600,76.576 277.600 C 76.919 277.600,77.200 277.780,77.200 278.000 C 77.200 278.220,77.470 278.400,77.800 278.400 C 78.130 278.400,78.400 278.580,78.400 278.800 C 78.400 279.020,78.760 279.200,79.200 279.200 C 79.640 279.200,80.000 279.380,80.000 279.600 C 80.000 279.820,80.360 280.000,80.800 280.000 C 81.240 280.000,81.600 280.180,81.600 280.400 C 81.600 280.620,81.960 280.800,82.400 280.800 C 82.840 280.800,83.200 280.980,83.200 281.200 C 83.200 281.420,83.909 281.600,84.776 281.600 C 85.643 281.600,86.464 281.780,86.600 282.000 C 86.943 282.555,290.800 282.555,290.800 282.000 C 290.800 281.780,291.520 281.600,292.400 281.600 C 293.280 281.600,294.000 281.420,294.000 281.200 C 294.000 280.980,294.343 280.800,294.762 280.800 C 295.669 280.800,298.800 279.192,298.800 278.726 C 298.800 278.547,299.075 278.400,299.411 278.400 C 299.963 278.400,301.149 277.385,305.133 273.500 C 305.867 272.785,306.764 271.525,307.128 270.700 C 307.491 269.875,307.920 269.200,308.081 269.200 C 308.241 269.200,308.492 268.300,308.638 267.200 C 308.784 266.100,309.060 265.200,309.252 265.200 C 309.443 265.200,309.600 264.120,309.600 262.800 C 309.600 261.467,309.778 260.400,310.000 260.400 C 310.722 260.400,310.528 232.870,309.800 232.143 C 308.902 231.245,308.890 155.363,309.787 154.176 C 310.502 153.232,310.704 127.435,310.000 127.000 C 309.780 126.864,309.600 125.953,309.600 124.976 C 309.600 123.999,309.443 123.200,309.252 123.200 C 309.060 123.200,308.786 122.317,308.643 121.238 C 308.249 118.269,302.776 110.400,301.105 110.400 C 300.919 110.400,300.387 110.046,299.923 109.614 C 299.459 109.181,298.939 108.914,298.767 109.020 C 298.596 109.126,298.342 109.030,298.204 108.807 C 298.066 108.583,297.603 108.400,297.176 108.400 C 296.749 108.400,296.400 108.220,296.400 108.000 C 296.400 107.780,296.040 107.600,295.600 107.600 C 295.160 107.600,294.800 107.420,294.800 107.200 C 294.800 106.499,293.301 106.771,293.109 107.506 M74.412 111.984 C 74.088 112.189,73.944 112.478,74.093 112.626 C 74.241 112.774,74.653 112.604,75.010 112.248 C 75.713 111.544,75.357 111.387,74.412 111.984 M75.229 138.654 C 72.636 141.951,76.148 146.487,79.346 143.971 C 80.795 142.831,80.866 139.778,79.474 138.470 C 78.164 137.239,76.278 137.321,75.229 138.654 M179.400 141.579 C 137.089 149.131,121.309 201.516,152.264 231.665 C 177.007 255.763,219.378 249.023,235.324 218.451 C 255.817 179.160,222.837 133.827,179.400 141.579 M76.200 151.262 C 74.325 152.287,74.400 150.254,74.400 200.232 C 74.400 253.467,74.155 249.360,77.329 249.360 C 80.695 249.360,80.400 254.081,80.400 200.132 L 80.400 152.388 79.100 151.596 C 77.616 150.691,77.309 150.655,76.200 151.262 M176.281 162.889 C 176.897 163.158,179.380 164.664,181.800 166.234 C 184.220 167.805,187.190 169.716,188.400 170.481 C 189.610 171.247,194.470 174.395,199.200 177.478 C 206.903 182.498,212.787 186.268,214.689 187.400 C 222.043 191.778,221.867 196.736,214.244 199.953 C 214.044 200.037,210.937 202.062,207.338 204.453 C 203.739 206.844,200.631 208.800,200.431 208.800 C 200.230 208.800,200.007 208.944,199.933 209.119 C 199.860 209.295,197.550 210.855,194.800 212.587 C 192.050 214.319,187.420 217.325,184.511 219.268 C 181.601 221.211,179.081 222.804,178.911 222.809 C 178.740 222.814,178.150 223.170,177.600 223.600 C 175.998 224.853,173.188 224.683,171.642 223.240 L 170.400 222.079 170.400 194.020 C 170.400 163.039,170.308 164.168,172.912 163.029 C 174.557 162.309,174.920 162.294,176.281 162.889 M105.121 337.300 C 104.991 358.470,105.063 357.746,102.851 360.136 C 100.679 362.482,101.630 362.400,76.643 362.400 C 60.810 362.400,53.565 362.533,53.384 362.826 C 52.877 363.647,53.651 366.030,54.879 367.429 C 57.250 370.129,55.840 370.000,82.900 370.000 L 107.440 370.000 109.023 368.973 C 109.894 368.408,111.010 367.331,111.504 366.579 L 112.400 365.211 112.400 343.678 L 112.400 322.144 110.959 320.460 C 109.550 318.814,107.433 317.600,105.972 317.600 C 105.276 317.600,105.236 318.537,105.121 337.300 M183.117 337.500 L 183.000 357.400 181.893 359.030 C 179.497 362.560,180.784 362.400,154.688 362.400 C 129.423 362.400,130.868 362.248,131.608 364.826 C 132.153 366.727,133.043 367.891,134.802 369.001 L 136.384 370.000 160.808 370.000 C 187.413 370.000,186.920 370.040,188.800 367.727 C 190.628 365.479,190.600 365.849,190.600 343.639 L 190.600 322.600 189.615 321.200 C 188.404 319.480,187.781 318.954,186.051 318.193 C 183.003 316.852,183.249 315.234,183.117 337.500 M261.200 337.115 C 261.200 359.286,261.251 358.925,257.800 361.281 L 256.200 362.373 232.900 362.387 L 209.600 362.400 209.600 363.805 C 209.600 366.009,210.979 368.041,213.284 369.232 C 214.702 369.966,215.865 369.999,239.284 369.971 C 266.679 369.938,264.877 370.126,267.368 367.049 L 268.600 365.526 268.723 344.863 C 268.852 323.324,268.786 322.307,267.132 320.204 C 266.180 318.995,263.520 317.623,262.100 317.609 L 261.200 317.600 261.200 337.115 M339.521 337.300 C 339.391 358.470,339.463 357.747,337.251 360.134 C 335.284 362.258,336.093 362.187,311.205 362.400 C 288.945 362.590,287.804 362.635,287.670 363.332 C 287.431 364.575,287.958 365.924,289.265 367.413 C 291.652 370.132,290.223 370.000,317.300 370.000 L 341.840 370.000 343.483 368.935 C 346.933 366.698,346.800 367.702,346.800 343.840 C 346.800 327.743,346.682 322.579,346.300 321.895 C 344.957 319.492,342.345 317.600,340.372 317.600 C 339.676 317.600,339.636 318.537,339.521 337.300 " stroke="none" fill="#1324cc" fill-rule="evenodd"></path><path id="path3" d="M164.400 17.100 C 164.400 17.269,164.760 17.632,165.200 17.907 C 165.640 18.182,166.000 18.269,166.000 18.100 C 166.000 17.931,165.640 17.568,165.200 17.293 C 164.760 17.018,164.400 16.931,164.400 17.100 M167.200 19.376 C 167.200 19.540,167.560 20.131,168.000 20.691 C 168.440 21.250,168.800 21.531,168.800 21.315 C 168.800 21.099,168.440 20.507,168.000 20.000 C 167.560 19.493,167.200 19.212,167.200 19.376 M180.267 67.067 C 180.120 67.213,180.000 67.743,180.000 68.243 C 180.000 68.743,179.820 69.264,179.600 69.400 C 179.380 69.536,179.200 70.089,179.200 70.629 C 179.200 71.169,179.041 71.923,178.847 72.305 C 178.652 72.687,178.314 73.450,178.096 74.000 C 175.472 80.597,169.339 89.652,165.249 92.967 C 164.726 93.391,163.916 94.116,163.449 94.578 C 162.982 95.040,161.970 95.855,161.200 96.389 C 160.430 96.924,159.710 97.485,159.600 97.636 C 158.998 98.461,149.785 103.200,148.783 103.200 C 148.378 103.200,147.936 103.380,147.800 103.600 C 147.664 103.820,147.113 104.000,146.576 104.000 C 146.039 104.000,145.600 104.160,145.600 104.356 C 145.600 104.552,144.925 104.828,144.100 104.968 C 143.275 105.109,141.790 105.375,140.800 105.559 C 139.792 105.746,160.832 105.895,188.600 105.896 C 219.647 105.899,237.527 105.763,236.400 105.534 C 235.410 105.332,234.015 105.065,233.300 104.940 C 232.585 104.815,232.000 104.552,232.000 104.356 C 232.000 104.160,231.548 104.000,230.995 104.000 C 230.442 104.000,229.677 103.834,229.295 103.631 C 228.913 103.428,226.852 102.437,224.716 101.430 C 218.877 98.676,216.596 97.013,210.969 91.413 C 204.757 85.230,201.295 79.551,198.344 70.700 L 197.044 66.800 188.789 66.800 C 184.248 66.800,180.413 66.920,180.267 67.067 M172.912 163.029 C 170.308 164.168,170.400 163.039,170.400 194.020 L 170.400 222.079 171.642 223.240 C 173.188 224.683,175.998 224.853,177.600 223.600 C 178.150 223.170,178.732 222.814,178.893 222.809 C 179.054 222.804,182.115 220.865,185.696 218.500 C 189.277 216.135,194.174 212.940,196.579 211.400 C 198.983 209.860,203.848 206.693,207.389 204.362 C 210.930 202.031,214.003 200.051,214.217 199.962 C 215.842 199.286,218.881 196.793,219.567 195.574 C 221.278 192.529,220.409 191.150,214.319 187.256 C 211.691 185.575,206.085 181.950,201.861 179.200 C 197.637 176.450,192.485 173.120,190.411 171.800 C 188.337 170.480,184.561 168.047,182.020 166.393 C 175.485 162.139,175.193 162.031,172.912 163.029 M41.600 224.800 L 41.600 228.400 54.600 228.400 L 67.600 228.400 67.600 224.800 L 67.600 221.200 54.600 221.200 L 41.600 221.200 41.600 224.800 M309.600 227.800 C 309.600 229.800,309.765 231.200,310.000 231.200 C 310.220 231.200,310.400 231.650,310.400 232.200 C 310.400 232.888,310.618 233.198,311.100 233.194 C 311.698 233.189,311.713 233.131,311.200 232.800 C 310.710 232.483,310.757 232.411,311.456 232.406 C 312.027 232.402,312.293 232.633,312.256 233.100 C 312.217 233.584,312.540 233.839,313.300 233.927 C 313.905 233.996,314.400 234.221,314.400 234.427 C 314.400 234.632,314.591 234.800,314.824 234.800 C 315.057 234.800,315.136 234.620,315.000 234.400 C 314.864 234.180,315.063 234.000,315.443 234.000 C 315.823 234.000,316.015 234.118,315.870 234.263 C 315.429 234.704,316.444 235.602,317.349 235.572 C 318.179 235.544,318.180 235.535,317.400 235.200 C 316.637 234.872,316.641 234.855,317.500 234.828 C 318.143 234.808,318.400 235.029,318.400 235.600 C 318.400 236.098,318.665 236.398,319.100 236.394 C 319.698 236.389,319.713 236.331,319.200 236.000 C 318.687 235.669,318.702 235.611,319.300 235.606 C 319.685 235.603,320.000 235.851,320.000 236.157 C 320.000 236.464,320.285 236.824,320.633 236.957 C 321.581 237.321,321.879 237.239,321.200 236.800 C 320.715 236.486,320.772 236.411,321.500 236.406 C 321.995 236.403,322.379 236.535,322.353 236.700 C 322.217 237.559,322.472 237.999,323.100 237.994 C 323.636 237.989,323.675 237.909,323.266 237.650 C 322.837 237.377,322.856 237.264,323.366 237.068 C 323.805 236.900,324.000 237.055,324.000 237.570 C 324.000 238.289,325.096 239.037,325.524 238.609 C 325.639 238.494,325.523 238.400,325.267 238.400 C 325.010 238.400,324.800 238.220,324.800 238.000 C 324.800 237.780,325.143 237.600,325.563 237.600 C 326.127 237.600,326.271 237.807,326.117 238.395 C 325.976 238.936,326.147 239.267,326.655 239.431 C 327.678 239.762,329.248 240.414,330.158 240.886 C 330.751 241.194,330.868 241.155,330.696 240.706 C 330.568 240.372,330.717 240.133,331.055 240.133 C 331.374 240.133,331.548 240.358,331.442 240.634 C 331.192 241.287,332.449 241.768,332.823 241.162 C 333.180 240.584,334.000 241.045,334.000 241.824 C 334.000 242.141,334.191 242.400,334.424 242.400 C 334.657 242.400,334.736 242.220,334.600 242.000 C 334.464 241.780,334.734 241.600,335.200 241.600 C 335.666 241.600,335.936 241.780,335.800 242.000 C 335.655 242.234,336.070 242.400,336.800 242.400 C 337.530 242.400,337.945 242.566,337.800 242.800 C 337.660 243.027,337.996 243.200,338.576 243.200 C 339.139 243.200,339.600 243.380,339.600 243.600 C 339.600 243.820,340.151 244.000,340.824 244.000 C 341.537 244.000,341.944 244.167,341.800 244.400 C 341.660 244.626,341.987 244.800,342.549 244.800 C 343.195 244.800,343.636 245.082,343.800 245.600 C 343.940 246.040,344.232 246.400,344.451 246.400 C 344.669 246.400,344.736 246.220,344.600 246.000 C 344.464 245.780,344.633 245.600,344.976 245.600 C 345.347 245.600,345.613 245.965,345.632 246.500 C 345.649 246.995,345.754 247.175,345.865 246.900 C 346.183 246.110,347.520 246.318,347.800 247.200 C 347.940 247.640,348.232 248.000,348.451 248.000 C 348.669 248.000,348.736 247.820,348.600 247.600 C 348.464 247.380,348.644 247.200,349.000 247.200 C 349.356 247.200,349.558 247.344,349.450 247.519 C 349.342 247.695,349.418 248.100,349.620 248.419 C 349.872 248.818,349.990 248.843,349.994 248.500 C 349.997 248.225,350.270 248.000,350.600 248.000 C 351.569 248.000,351.473 240.462,350.500 240.151 C 349.582 239.858,348.608 239.461,346.304 238.440 C 345.262 237.978,344.173 237.600,343.884 237.600 C 343.596 237.600,343.189 237.449,342.980 237.265 C 342.771 237.080,341.070 236.339,339.200 235.617 C 327.914 231.262,321.808 228.838,319.104 227.640 C 318.062 227.178,316.973 226.800,316.684 226.800 C 316.396 226.800,315.989 226.650,315.780 226.467 C 315.160 225.924,311.154 224.400,310.347 224.400 C 309.676 224.400,309.600 224.748,309.600 227.800 M330.000 239.600 C 330.000 239.820,329.730 240.000,329.400 240.000 C 329.070 240.000,328.800 239.820,328.800 239.600 C 328.800 239.380,329.070 239.200,329.400 239.200 C 329.730 239.200,330.000 239.380,330.000 239.600 M352.576 292.362 C 352.746 292.636,352.464 292.800,351.824 292.800 L 350.800 292.800 350.800 302.400 L 350.800 312.000 354.400 312.000 L 358.000 312.000 358.000 305.033 C 358.000 300.472,358.147 298.018,358.425 297.925 C 359.347 297.618,357.334 294.585,355.023 292.800 C 353.778 291.839,354.678 293.178,356.070 294.358 C 357.222 295.335,357.518 296.000,356.800 296.000 C 356.580 296.000,356.400 295.804,356.400 295.564 C 356.400 295.008,354.764 293.631,354.082 293.613 C 353.798 293.606,353.618 293.292,353.682 292.915 C 353.752 292.507,353.497 292.167,353.053 292.076 C 352.587 291.981,352.407 292.088,352.576 292.362 M358.000 296.600 C 358.000 296.930,357.820 297.200,357.600 297.200 C 357.380 297.200,357.200 296.930,357.200 296.600 C 357.200 296.270,357.380 296.000,357.600 296.000 C 357.820 296.000,358.000 296.270,358.000 296.600 M350.800 377.823 C 350.800 381.949,349.095 385.199,346.214 386.567 C 345.368 386.968,344.800 387.527,344.800 387.957 C 344.800 389.565,343.582 390.000,339.084 390.000 C 334.846 390.000,333.200 389.419,333.200 387.925 C 333.200 387.746,328.790 387.600,323.400 387.600 C 314.230 387.600,313.600 387.646,313.600 388.320 C 313.600 389.745,312.780 390.000,308.200 390.000 C 303.620 390.000,302.800 389.745,302.800 388.320 C 302.800 387.646,302.175 387.600,293.100 387.604 L 283.400 387.607 282.455 388.804 C 280.677 391.054,271.600 390.439,271.600 388.069 C 271.600 387.723,269.022 387.600,261.800 387.600 C 253.857 387.600,252.000 387.702,252.000 388.138 C 252.000 389.556,250.641 390.000,246.296 390.000 L 242.054 390.000 241.200 388.800 L 240.346 387.600 230.763 387.600 L 221.180 387.600 220.821 388.545 C 220.325 389.849,219.727 390.000,215.047 390.000 C 210.831 390.000,210.000 389.723,210.000 388.320 C 210.000 387.646,209.371 387.600,200.222 387.600 L 190.444 387.600 189.917 388.700 C 188.980 390.659,179.945 390.560,179.193 388.582 L 178.814 387.586 169.151 387.693 C 159.959 387.795,159.465 387.839,159.043 388.600 C 158.321 389.904,157.992 389.987,153.562 389.994 C 149.247 390.000,148.000 389.569,148.000 388.069 C 148.000 387.723,145.422 387.600,138.200 387.600 C 130.257 387.600,128.400 387.702,128.400 388.138 C 128.400 389.556,127.041 390.000,122.696 390.000 L 118.454 390.000 117.600 388.800 L 116.746 387.600 106.973 387.600 C 97.829 387.600,97.200 387.646,97.200 388.320 C 97.200 389.740,96.377 390.000,91.891 390.000 C 87.406 390.000,86.400 389.676,86.400 388.229 C 86.400 387.674,85.242 387.600,76.600 387.600 C 71.210 387.600,66.800 387.746,66.800 387.925 C 66.800 388.103,66.433 388.643,65.984 389.125 C 64.147 391.097,55.200 390.161,55.200 387.995 C 55.200 387.751,52.682 387.600,48.600 387.600 L 42.000 387.600 42.000 388.624 C 42.000 389.204,41.827 389.540,41.600 389.400 C 41.110 389.097,41.089 389.606,41.561 390.351 C 41.753 390.654,42.111 390.779,42.355 390.628 C 42.645 390.448,42.800 390.788,42.800 391.605 C 42.800 392.294,43.057 393.114,43.371 393.429 C 44.026 394.083,44.568 394.196,44.200 393.600 C 44.064 393.380,44.217 393.200,44.539 393.200 C 44.928 393.200,45.055 393.469,44.916 394.000 C 44.794 394.465,44.904 394.800,45.177 394.800 C 45.436 394.800,45.536 394.620,45.400 394.400 C 45.264 394.180,45.343 394.000,45.576 394.000 C 45.809 394.000,46.000 394.180,46.000 394.400 C 46.000 394.620,46.709 394.800,47.576 394.800 C 48.443 394.800,49.264 394.980,49.400 395.200 C 49.564 395.466,100.196 395.600,200.000 395.600 C 299.804 395.600,350.436 395.466,350.600 395.200 C 350.959 394.619,353.198 394.704,353.212 395.300 C 353.219 395.575,353.425 395.440,353.671 395.000 C 354.337 393.807,354.408 393.772,354.856 394.412 C 355.180 394.872,355.227 394.805,355.072 394.100 C 354.866 393.161,355.400 392.828,355.713 393.700 C 355.990 394.472,357.682 392.355,357.461 391.512 C 357.359 391.121,357.438 390.700,357.638 390.577 C 357.837 390.454,358.013 390.678,358.028 391.076 C 358.053 391.722,358.093 391.714,358.400 391.000 C 358.873 389.899,358.873 389.508,358.400 389.800 C 358.139 389.961,358.000 387.604,358.000 383.024 L 358.000 376.000 354.400 376.000 L 350.800 376.000 350.800 377.823 M274.900 395.100 C 233.705 395.156,166.295 395.156,125.100 395.100 C 83.905 395.044,117.610 394.998,200.000 394.998 C 282.390 394.998,316.095 395.044,274.900 395.100 " stroke="none" fill="#2e2d33" fill-rule="evenodd"></path><path id="path4" d="M85.600 106.499 C 85.600 106.665,84.869 106.800,83.976 106.800 C 82.996 106.800,82.451 106.958,82.600 107.200 C 82.740 107.427,82.404 107.600,81.824 107.600 C 81.261 107.600,80.800 107.744,80.800 107.920 C 80.800 108.095,80.162 108.470,79.382 108.752 C 76.945 109.633,71.208 115.824,69.778 119.116 C 69.423 119.932,68.968 120.913,68.766 121.295 C 68.565 121.677,68.400 122.442,68.400 122.995 C 68.400 123.548,68.263 124.000,68.097 124.000 C 67.712 124.000,67.810 263.094,68.195 264.276 C 68.686 265.780,70.061 265.800,174.000 265.800 L 275.000 265.800 278.000 264.695 C 285.495 261.933,290.896 256.126,292.967 248.600 C 293.572 246.402,293.614 240.421,293.471 177.400 C 293.295 99.866,293.381 106.800,292.596 106.800 C 292.268 106.800,292.000 106.664,292.000 106.498 C 292.000 106.332,245.560 106.197,188.800 106.197 C 132.040 106.198,85.600 106.334,85.600 106.499 M79.474 138.470 C 80.866 139.778,80.795 142.831,79.346 143.971 C 77.120 145.722,74.400 144.238,74.400 141.272 C 74.400 138.071,77.328 136.454,79.474 138.470 M197.347 141.443 C 236.280 147.632,254.747 193.624,231.002 225.262 C 207.917 256.021,160.162 252.321,142.259 218.385 C 121.814 179.632,154.080 134.564,197.347 141.443 M79.100 151.596 L 80.400 152.388 80.400 200.132 C 80.400 247.754,80.398 247.878,79.580 248.618 C 78.393 249.693,76.090 249.598,75.148 248.436 C 74.195 247.258,73.952 153.514,74.900 152.326 C 76.169 150.735,77.352 150.530,79.100 151.596 M309.391 189.600 C 309.391 208.850,309.440 216.725,309.500 207.100 C 309.560 197.475,309.560 181.725,309.500 172.100 C 309.440 162.475,309.391 170.350,309.391 189.600 M58.081 317.704 C 56.540 318.198,54.425 320.107,53.588 321.760 C 53.092 322.738,53.000 326.294,53.000 344.360 L 53.000 365.800 53.926 367.098 C 54.436 367.813,55.696 368.893,56.726 369.498 L 58.600 370.600 83.000 370.600 L 107.400 370.600 109.057 369.522 C 110.700 368.453,112.676 366.143,112.283 365.749 C 112.170 365.637,111.766 366.073,111.385 366.718 C 111.004 367.363,109.960 368.366,109.066 368.946 L 107.440 370.000 82.900 370.000 C 55.840 370.000,57.250 370.129,54.879 367.429 C 53.651 366.030,52.877 363.647,53.384 362.826 C 53.565 362.533,60.810 362.400,76.643 362.400 C 101.630 362.400,100.679 362.482,102.851 360.136 C 105.063 357.746,104.991 358.470,105.121 337.300 C 105.236 318.537,105.276 317.600,105.972 317.600 C 107.433 317.600,109.550 318.814,110.959 320.460 C 111.751 321.386,112.395 321.977,112.389 321.772 C 112.369 321.056,110.186 318.848,108.688 318.028 C 106.950 317.076,60.960 316.782,58.081 317.704 M136.000 317.867 C 134.340 318.580,132.543 320.191,131.782 321.647 C 131.341 322.490,131.224 326.853,131.179 344.098 L 131.124 365.502 132.169 367.082 C 132.744 367.950,133.976 369.097,134.907 369.630 L 136.600 370.600 161.000 370.600 C 194.455 370.600,191.308 373.484,191.123 343.000 L 191.000 322.600 190.037 321.051 C 189.508 320.200,188.258 318.985,187.259 318.351 L 185.443 317.200 161.422 317.233 C 140.983 317.260,137.191 317.355,136.000 317.867 M213.835 318.013 C 209.112 320.369,209.240 319.651,209.182 344.155 C 209.155 355.546,209.238 364.971,209.366 365.100 C 209.495 365.228,209.600 364.673,209.600 363.867 L 209.600 362.400 232.900 362.387 L 256.200 362.373 257.800 361.281 C 261.251 358.925,261.200 359.286,261.200 337.115 L 261.200 317.600 262.100 317.609 C 263.520 317.623,266.180 318.995,267.132 320.204 C 268.786 322.307,268.852 323.324,268.723 344.863 L 268.600 365.526 267.368 367.049 C 264.877 370.126,266.679 369.938,239.284 369.971 C 212.805 370.002,212.171 369.953,211.338 367.782 C 211.215 367.462,210.922 367.200,210.687 367.200 C 209.962 367.200,212.109 369.214,213.594 369.926 C 214.865 370.535,217.329 370.600,239.200 370.600 L 263.400 370.600 265.093 369.630 C 266.024 369.097,267.284 367.927,267.893 367.030 L 269.000 365.400 269.122 345.200 C 269.274 320.167,269.203 319.749,264.510 317.788 C 262.033 316.753,215.949 316.958,213.835 318.013 M292.481 317.704 C 291.066 318.157,288.975 319.976,288.000 321.600 C 287.489 322.452,287.391 325.745,287.337 343.800 C 287.303 355.460,287.394 364.460,287.541 363.800 L 287.808 362.600 311.204 362.400 C 336.093 362.187,335.284 362.258,337.251 360.134 C 339.463 357.747,339.391 358.470,339.521 337.300 C 339.636 318.537,339.676 317.600,340.372 317.600 C 342.342 317.600,345.478 319.856,346.151 321.757 C 346.298 322.174,346.531 322.402,346.668 322.265 C 347.172 321.761,344.864 318.973,343.220 318.100 L 341.524 317.200 317.662 317.241 C 302.122 317.267,293.340 317.429,292.481 317.704 M186.051 318.193 C 187.781 318.954,188.404 319.480,189.615 321.200 L 190.600 322.600 190.600 343.639 C 190.600 373.171,194.183 370.000,160.808 370.000 L 136.384 370.000 134.802 369.001 C 133.043 367.891,132.153 366.727,131.608 364.826 C 130.868 362.248,129.423 362.400,154.688 362.400 C 180.784 362.400,179.497 362.560,181.893 359.030 L 183.000 357.400 183.117 337.500 C 183.249 315.234,183.003 316.852,186.051 318.193 M112.456 343.800 C 112.456 355.976,112.603 364.659,112.800 364.200 C 112.989 363.760,113.144 354.580,113.144 343.800 C 113.144 333.020,112.989 323.840,112.800 323.400 C 112.603 322.941,112.456 331.624,112.456 343.800 M346.856 343.800 C 346.856 355.976,347.003 364.659,347.200 364.200 C 347.389 363.760,347.544 354.580,347.544 343.800 C 347.544 333.020,347.389 323.840,347.200 323.400 C 347.003 322.941,346.856 331.624,346.856 343.800 M287.612 365.514 C 287.590 366.448,288.895 368.027,290.761 369.323 L 292.600 370.600 317.200 370.600 L 341.800 370.600 343.639 369.323 C 345.502 368.029,346.808 366.451,346.791 365.514 C 346.786 365.231,346.406 365.648,345.947 366.439 C 345.488 367.230,344.376 368.355,343.476 368.939 L 341.840 370.000 317.300 370.000 C 296.954 370.000,292.576 369.904,291.680 369.436 C 290.507 368.823,288.769 367.074,288.066 365.800 C 287.823 365.360,287.619 365.231,287.612 365.514 " stroke="none" fill="#2c5cbf" fill-rule="evenodd"></path></g></svg>